<?xml version="1.0" standalone="no"?>
<!DOCTYPE svg PUBLIC "-//W3C//DTD SVG 20010904//EN"
 "http://www.w3.org/TR/2001/REC-SVG-20010904/DTD/svg10.dtd">
<svg version="1.0" xmlns="http://www.w3.org/2000/svg"
 width="760.000000pt" height="760.000000pt" viewBox="0 0 760.000000 760.000000"
 preserveAspectRatio="xMidYMid meet">
<metadata>
Created by potrace 1.11, written by Peter Selinger 2001-2013
</metadata>
<g transform="translate(0.000000,760.000000) scale(0.100000,-0.100000)"
fill="#000000" stroke="none">
<path d="M37 7582 c-16 -17 -17 -299 -17 -3785 l0 -3766 22 -15 c20 -14 392
-16 3763 -16 3369 0 3743 2 3763 16 l22 15 0 3769 0 3769 -22 15 c-20 14 -394
16 -3769 16 -3612 0 -3746 -1 -3762 -18z m6703 -3782 l0 -2950 -2935 0 -2935
0 0 2950 0 2950 2935 0 2935 0 0 -2950z"/>
<path d="M1532 6084 l-22 -15 0 -2264 0 -2264 26 -20 c20 -16 31 -18 45 -11
27 15 4518 4508 4520 4523 3 23 -1 36 -17 51 -14 14 -73 16 -500 16 l-486 0
-1369 -1371 -1369 -1371 0 1355 c0 1299 -1 1355 -18 1370 -17 15 -59 17 -403
17 -332 0 -388 -2 -407 -16z"/>
<path d="M4171 3473 c-12 -8 -71 -63 -130 -121 -59 -59 -167 -165 -239 -236
-124 -121 -138 -139 -132 -176 1 -8 324 -336 717 -727 l715 -713 472 0 c259 0
481 3 492 6 28 7 45 44 32 67 -5 10 -350 358 -766 775 -416 417 -818 822 -892
900 -74 79 -153 162 -176 186 -49 52 -66 59 -93 39z"/>
</g>
</svg>
