<?xml version="1.0" standalone="no"?>
<!DOCTYPE svg PUBLIC "-//W3C//DTD SVG 20010904//EN"
 "http://www.w3.org/TR/2001/REC-SVG-20010904/DTD/svg10.dtd">
<svg version="1.0" xmlns="http://www.w3.org/2000/svg"
 width="900.000000pt" height="900.000000pt" viewBox="0 0 900.000000 900.000000"
 preserveAspectRatio="xMidYMid meet">
<metadata>
Created by potrace 1.11, written by Peter Selinger 2001-2013
</metadata>
<g transform="translate(0.000000,900.000000) scale(0.100000,-0.100000)"
fill="#000000" stroke="none">
<path d="M2940 4495 l0 -3015 418 0 418 0 24 58 c12 31 28 64 34 72 7 8 23 42
35 75 13 33 30 67 37 76 8 8 23 42 34 74 11 32 26 66 33 74 17 21 47 88 47
105 0 7 8 24 18 37 10 13 29 49 41 79 13 30 46 102 73 160 28 58 65 137 83
175 19 39 46 99 60 135 15 36 33 72 41 81 8 8 14 21 14 27 0 15 31 83 47 103
7 8 22 42 33 74 11 32 26 66 33 74 7 9 21 36 32 61 10 25 35 81 56 125 67 144
136 292 183 395 8 19 20 42 25 50 5 8 19 40 31 70 12 30 28 62 35 70 7 8 18
33 25 55 7 22 28 67 46 101 19 33 34 68 34 76 0 8 8 26 18 39 10 13 29 49 41
79 13 30 41 92 62 137 22 45 39 88 39 96 0 8 7 20 15 27 8 6 17 22 21 33 4 12
24 58 44 102 21 44 45 96 54 115 8 19 20 42 25 50 5 8 19 40 31 70 12 30 28
62 35 70 7 8 18 33 25 55 7 22 28 67 46 101 19 33 34 68 34 76 0 8 8 26 18 39
10 13 31 56 46 94 15 39 32 77 37 85 5 8 18 33 28 55 10 22 34 74 54 115 20
42 41 87 46 100 6 14 15 32 20 40 5 8 19 40 31 70 12 30 28 62 35 70 7 8 16
26 20 40 7 26 65 151 120 260 18 36 38 83 45 105 7 22 18 47 25 55 7 8 23 40
35 70 12 30 26 62 31 70 5 8 18 33 28 55 10 22 32 69 49 105 16 36 37 81 46
100 8 19 20 42 25 50 5 8 19 40 31 70 12 30 28 62 34 70 7 8 18 31 25 50 7 19
30 71 51 115 21 44 57 118 79 165 23 47 41 91 41 98 0 7 -44 33 -97 58 -54 25
-132 62 -173 81 -41 19 -106 50 -145 68 -38 19 -95 44 -125 56 -30 12 -62 28
-70 35 -13 11 -68 34 -122 51 -13 4 -21 -3 -28 -21 -5 -15 -30 -69 -55 -121
-25 -52 -45 -99 -45 -104 0 -4 -8 -19 -19 -32 -10 -13 -21 -35 -25 -49 -4 -14
-25 -61 -46 -105 -21 -44 -46 -100 -56 -125 -10 -25 -24 -52 -31 -61 -7 -8
-22 -42 -33 -74 -11 -32 -26 -66 -33 -74 -7 -9 -21 -36 -31 -61 -25 -63 -34
-83 -46 -100 -13 -20 -95 -199 -104 -227 -4 -11 -13 -27 -21 -33 -8 -7 -15
-19 -15 -27 0 -8 -16 -47 -35 -86 -20 -40 -48 -101 -62 -137 -14 -36 -31 -72
-38 -80 -7 -8 -23 -42 -34 -74 -11 -32 -27 -66 -34 -75 -8 -9 -24 -43 -36 -76
-13 -33 -28 -67 -35 -75 -7 -8 -23 -40 -35 -70 -13 -30 -50 -110 -82 -177 -32
-68 -59 -127 -59 -132 0 -4 -8 -19 -19 -32 -10 -13 -21 -35 -25 -49 -4 -14
-25 -61 -46 -105 -21 -44 -46 -100 -56 -125 -10 -25 -24 -52 -31 -61 -7 -8
-22 -42 -33 -74 -11 -32 -26 -66 -33 -74 -17 -21 -47 -88 -47 -105 0 -7 -8
-24 -18 -37 -10 -13 -29 -49 -41 -79 -13 -30 -46 -102 -73 -160 -76 -158 -123
-260 -143 -310 -11 -25 -27 -56 -37 -69 -10 -13 -18 -29 -18 -36 0 -16 -30
-81 -52 -115 -9 -14 -24 -47 -33 -75 -9 -27 -22 -57 -29 -65 -7 -8 -24 -42
-37 -75 -12 -33 -29 -67 -36 -76 -7 -8 -13 -20 -13 -26 0 -16 -35 -43 -57 -43
-11 0 -27 8 -36 18 -16 17 -17 170 -17 1995 l0 1977 -390 0 -390 0 0 -3015z"/>
<path d="M4130 7489 c-36 -4 -120 -18 -187 -30 l-123 -22 0 -245 0 -244 23 5
c256 56 369 73 563 83 222 11 527 -25 774 -91 52 -14 96 -22 98 -18 1 4 9 19
17 33 18 32 28 54 51 110 10 25 24 52 31 61 7 8 22 42 33 74 11 32 26 66 33
74 7 9 18 28 25 43 11 26 10 27 -51 47 -60 20 -136 40 -167 45 -9 1 -20 5 -25
8 -16 10 -214 48 -331 63 -120 16 -647 19 -764 4z"/>
<path d="M2748 6944 c-258 -182 -522 -448 -710 -714 -207 -294 -388 -694 -463
-1023 -2 -9 -6 -21 -9 -26 -3 -4 -8 -23 -10 -42 -3 -19 -15 -81 -26 -139 -18
-89 -22 -153 -27 -423 -6 -347 1 -454 42 -652 14 -66 27 -127 30 -135 2 -8 16
-59 30 -113 68 -264 255 -653 433 -907 188 -267 452 -532 715 -718 l87 -62 0
294 0 293 -106 104 c-388 380 -643 858 -729 1369 -9 52 -18 106 -20 120 -25
146 -25 514 0 660 2 14 11 68 20 120 86 511 341 989 729 1369 l106 104 -2 291
-3 292 -87 -62z"/>
<path d="M6382 6818 c-6 -8 -18 -36 -27 -63 -9 -28 -24 -61 -33 -75 -22 -34
-52 -99 -52 -115 0 -7 -8 -23 -18 -36 -10 -13 -29 -48 -41 -78 l-23 -54 110
-111 c374 -378 613 -837 697 -1336 9 -52 18 -106 20 -120 25 -146 25 -514 0
-660 -2 -14 -11 -68 -20 -120 -65 -388 -254 -814 -488 -1101 l-45 -55 23 -41
c13 -22 38 -61 57 -86 18 -25 44 -62 58 -82 14 -21 40 -54 58 -75 17 -20 32
-40 32 -44 0 -4 10 -22 23 -41 l24 -35 30 33 c273 293 541 802 649 1230 2 9 6
25 8 35 15 58 57 268 65 327 12 91 12 680 0 770 -9 64 -52 283 -65 330 -3 11
-7 27 -9 35 -2 8 -4 17 -5 20 -1 3 -2 8 -2 11 2 13 -68 220 -112 332 -72 184
-213 444 -334 617 -68 97 -203 259 -298 359 -75 80 -243 232 -263 239 -4 1
-13 -3 -19 -10z"/>
<path d="M5253 4388 c-6 -7 -21 -38 -33 -68 -12 -30 -26 -62 -31 -70 -5 -8
-18 -33 -28 -55 -10 -22 -32 -69 -49 -105 -16 -36 -37 -81 -46 -100 -8 -19
-20 -42 -25 -50 -5 -8 -19 -40 -31 -70 -12 -30 -28 -62 -35 -70 -7 -8 -18 -33
-25 -55 -7 -22 -28 -67 -46 -101 l-34 -61 50 -69 c28 -38 61 -85 74 -104 13
-19 31 -41 40 -49 9 -7 16 -19 16 -25 0 -6 22 -40 50 -76 27 -36 49 -70 50
-76 0 -6 11 -21 25 -34 14 -13 25 -28 25 -34 0 -6 20 -36 45 -66 25 -30 45
-60 45 -66 0 -6 10 -19 21 -30 12 -10 25 -28 30 -39 5 -11 31 -51 59 -90 28
-38 69 -97 92 -130 23 -33 61 -87 85 -120 23 -33 64 -91 89 -130 26 -38 62
-88 81 -109 18 -22 33 -45 33 -51 0 -6 11 -22 25 -35 14 -13 25 -27 25 -31 0
-5 15 -29 33 -54 17 -26 41 -61 52 -78 11 -18 47 -68 79 -112 82 -111 109
-149 163 -230 25 -38 61 -88 80 -109 18 -22 33 -45 33 -51 0 -7 10 -20 21 -31
12 -10 25 -29 30 -41 5 -13 12 -23 16 -23 5 0 31 18 60 39 28 22 62 45 75 52
12 6 64 43 115 80 51 38 96 69 101 69 5 0 19 11 32 25 13 14 27 25 32 25 9 0
113 73 164 114 18 14 36 26 41 26 5 0 14 5 20 11 14 14 2 38 -55 112 -23 29
-42 58 -42 64 0 5 -11 20 -25 33 -14 13 -25 29 -25 35 0 6 -13 24 -30 40 -16
16 -30 32 -30 36 0 11 -57 94 -75 109 -8 7 -15 18 -15 24 0 7 -11 23 -25 36
-14 13 -25 28 -25 34 0 6 -31 53 -70 104 -38 50 -75 102 -81 115 -6 12 -29 45
-50 73 -22 28 -39 55 -39 61 0 5 -11 20 -25 33 -14 13 -25 28 -25 33 0 5 -15
26 -32 47 -29 31 -58 74 -104 152 -6 11 -23 32 -38 47 -14 15 -26 31 -26 37 0
8 -58 91 -112 159 -12 16 -29 41 -36 55 -7 14 -31 48 -53 76 -21 28 -39 55
-39 61 0 5 -11 20 -25 33 -14 13 -25 28 -25 33 0 5 -20 34 -45 66 -25 31 -45
62 -45 67 0 6 -11 21 -25 34 -14 13 -25 29 -25 35 0 6 -12 22 -26 36 -14 13
-32 37 -40 54 -8 16 -38 61 -67 99 -29 38 -60 83 -70 100 -11 17 -37 54 -58
82 -21 28 -39 55 -39 61 0 5 -9 18 -20 28 -12 11 -28 33 -36 49 -8 17 -32 50
-53 74 -29 34 -40 40 -48 30z"/>
<path d="M5579 2205 c-352 -176 -853 -270 -1259 -236 -74 6 -150 14 -167 17
-25 5 -33 3 -33 -9 0 -19 -46 -124 -58 -131 -6 -3 -13 -18 -16 -33 -6 -23 -54
-129 -111 -244 l-13 -27 107 -18 c134 -22 670 -32 825 -14 96 11 334 54 366
67 8 3 22 7 30 8 106 14 463 152 627 242 l62 34 -20 37 c-12 20 -31 48 -44 62
-12 14 -36 45 -51 69 -16 24 -40 61 -54 82 -49 75 -95 138 -100 138 -3 -1 -44
-20 -91 -44z"/>
</g>
</svg>
