<svg width="198" height="84" viewBox="0 0 198 84" fill="none" xmlns="http://www.w3.org/2000/svg">
<g opacity="0.6">
<path d="M74.9998 5.61865C59.3598 5.61865 46.6665 18.2045 46.6665 33.7121C46.6665 49.2197 59.3598 61.8055 74.9998 61.8055C90.6398 61.8055 103.333 49.2197 103.333 33.7121C103.333 18.2045 90.6398 5.61865 74.9998 5.61865Z" fill="#414141"/>
<path d="M74.9998 5.61865C59.3598 5.61865 46.6665 18.2045 46.6665 33.7121C46.6665 49.2197 59.3598 61.8055 74.9998 61.8055C90.6398 61.8055 103.333 49.2197 103.333 33.7121C103.333 18.2045 90.6398 5.61865 74.9998 5.61865Z" fill="url(#paint0_linear)" fill-opacity="0.5"/>
<path d="M137.333 5.61865C132.176 5.61865 127.332 7.02332 123.167 9.41127C131.638 14.2714 137.333 23.3175 137.333 33.7121C137.333 44.1067 131.638 53.1528 123.167 58.0129C127.332 60.4009 132.176 61.8055 137.333 61.8055C152.973 61.8055 165.666 49.2197 165.666 33.7121C165.666 18.2045 152.973 5.61865 137.333 5.61865Z" fill="#FFE001"/>
<path d="M137.333 5.61865C132.176 5.61865 127.332 7.02332 123.167 9.41127C131.638 14.2714 137.333 23.3175 137.333 33.7121C137.333 44.1067 131.638 53.1528 123.167 58.0129C127.332 60.4009 132.176 61.8055 137.333 61.8055C152.973 61.8055 165.666 49.2197 165.666 33.7121C165.666 18.2045 152.973 5.61865 137.333 5.61865Z" fill="url(#paint1_linear)"/>
</g>
<path d="M25.5803 78.75C22.4803 78.75 19.6053 78.025 16.9553 76.575C14.3553 75.075 12.2553 72.975 10.6553 70.275C9.10527 67.525 8.33027 64.325 8.33027 60.675C8.33027 55.225 9.85527 50.875 12.9053 47.625C15.9553 44.325 20.0803 42.675 25.2803 42.675C28.1803 42.675 30.8303 43.4 33.2303 44.85C35.6303 46.25 37.2553 47.95 38.1053 49.95L37.7303 44.1V22.875H45.6803V78H37.9553L37.8053 71.925C36.9553 73.725 35.4053 75.325 33.1553 76.725C30.9053 78.075 28.3803 78.75 25.5803 78.75ZM26.9303 71.925C29.7803 71.925 32.1803 70.95 34.1303 69C36.0803 67 37.0553 64.4 37.0553 61.2V60.675C37.0553 58.525 36.6053 56.6 35.7053 54.9C34.8053 53.2 33.5803 51.875 32.0303 50.925C30.4803 49.975 28.7803 49.5 26.9303 49.5C23.7303 49.5 21.2553 50.55 19.5053 52.65C17.7553 54.7 16.8803 57.375 16.8803 60.675C16.8803 64.025 17.7303 66.75 19.4303 68.85C21.1803 70.9 23.6803 71.925 26.9303 71.925ZM71.6496 78.75C68.5496 78.75 65.6746 78.025 63.0246 76.575C60.4246 75.075 58.3246 72.975 56.7246 70.275C55.1746 67.525 54.3996 64.325 54.3996 60.675C54.3996 57.075 55.0746 53.925 56.4246 51.225C57.8246 48.525 59.7996 46.425 62.3496 44.925C64.8996 43.425 67.8996 42.675 71.3496 42.675C73.3496 42.675 75.2246 43.025 76.9746 43.725C78.7246 44.425 80.1996 45.3 81.3996 46.35C82.5996 47.35 83.3996 48.35 83.7996 49.35L83.9496 43.575H91.6746V78H84.0246L83.8746 71.925C83.0246 73.725 81.4746 75.325 79.2246 76.725C76.9746 78.075 74.4496 78.75 71.6496 78.75ZM72.9996 72C75.8496 72 78.2496 71.025 80.1996 69.075C82.1496 67.075 83.1246 64.475 83.1246 61.275V60.75C83.1246 58.6 82.6746 56.675 81.7746 54.975C80.8746 53.275 79.6496 51.95 78.0996 51C76.5496 50.05 74.8496 49.575 72.9996 49.575C69.7996 49.575 67.3246 50.625 65.5746 52.725C63.8246 54.775 62.9496 57.45 62.9496 60.75C62.9496 64.1 63.7996 66.825 65.4996 68.925C67.2496 70.975 69.7496 72 72.9996 72ZM123.567 58.875L113.367 78H111.942L97.4672 43.575H106.167L113.592 63.6L123.417 43.575H123.717L133.617 63.45L141.042 43.575H149.592L135.192 78H133.767L123.567 58.875ZM155.155 43.575H163.105L163.18 49.875C164.13 47.775 165.63 46.05 167.68 44.7C169.73 43.35 172.13 42.675 174.88 42.675C178.43 42.675 181.155 43.425 183.055 44.925C184.955 46.375 186.23 48.425 186.88 51.075C187.53 53.725 187.855 57.175 187.855 61.425V78H179.755V61.65C179.755 57.3 179.33 54.175 178.48 52.275C177.63 50.325 175.88 49.35 173.23 49.35C171.73 49.35 170.205 49.825 168.655 50.775C167.105 51.675 165.805 53 164.755 54.75C163.755 56.5 163.255 58.55 163.255 60.9V78H155.155V43.575Z" fill="#313131"/>
<defs>
<linearGradient id="paint0_linear" x1="74.9998" y1="5.61865" x2="74.9998" y2="61.8055" gradientUnits="userSpaceOnUse">
<stop stop-color="white"/>
<stop offset="1" stop-color="#414141" stop-opacity="0"/>
</linearGradient>
<linearGradient id="paint1_linear" x1="-50.4911" y1="-60.7044" x2="211.285" y2="104.232" gradientUnits="userSpaceOnUse">
<stop offset="0.263451" stop-color="#FE5A48"/>
<stop offset="0.556521" stop-color="#FE5A48"/>
<stop offset="0.963653" stop-color="white" stop-opacity="0"/>
</linearGradient>
</defs>
</svg>
